inDegrees=no
DataType=double
version=3
OpenSimVersion=4.4-2022-10-11-798caa840
endheader
time	elv_angle	shoulder_elv	shoulder_rot	elbow_flexion	pro_sup	deviation	flexion
2.4020851434	0.3312713719	0.6805167939	0.0000000000	1.6579730036	0.0000000000	0.0000000000	0.0000000000
2.4062554301	0.3313129993	0.6805365121	0.0000000000	1.6579839582	0.0000000000	0.0000000000	0.0000000000
2.4104257168	0.3313511759	0.6805545958	0.0000000000	1.6579940047	0.0000000000	0.0000000000	0.0000000000
2.4145960035	0.3313860363	0.6805711086	0.0000000000	1.6580031784	0.0000000000	0.0000000000	0.0000000000
2.4187662902	0.3314177169	0.6805861152	0.0000000000	1.6580115155	0.0000000000	0.0000000000	0.0000000000
2.4229365769	0.3314463565	0.6805996813	0.0000000000	1.6580190522	0.0000000000	0.0000000000	0.0000000000
2.4271068636	0.3314720957	0.6806118735	0.0000000000	1.6580258257	0.0000000000	0.0000000000	0.0000000000
2.4312771503	0.3314950773	0.6806227596	0.0000000000	1.6580318734	0.0000000000	0.0000000000	0.0000000000
2.4354474370	0.3315154462	0.6806324080	0.0000000000	1.6580372337	0.0000000000	0.0000000000	0.0000000000
2.4396177237	0.3315333495	0.6806408885	0.0000000000	1.6580419451	0.0000000000	0.0000000000	0.0000000000
2.4437880104	0.3315489363	0.6806482717	0.0000000000	1.6580460469	0.0000000000	0.0000000000	0.0000000000
2.4479582971	0.3315623579	0.6806546293	0.0000000000	1.6580495789	0.0000000000	0.0000000000	0.0000000000
2.4521285838	0.3315737678	0.6806600340	0.0000000000	1.6580525815	0.0000000000	0.0000000000	0.0000000000
2.4562988705	0.3315833215	0.6806645594	0.0000000000	1.6580550956	0.0000000000	0.0000000000	0.0000000000
2.4604691573	0.3315911767	0.6806682804	0.0000000000	1.6580571628	0.0000000000	0.0000000000	0.0000000000
2.4646394440	0.3315974935	0.6806712725	0.0000000000	1.6580588251	0.0000000000	0.0000000000	0.0000000000
2.4688097307	0.3316024339	0.6806736127	0.0000000000	1.6580601252	0.0000000000	0.0000000000	0.0000000000
2.4729800174	0.3316061623	0.6806753788	0.0000000000	1.6580611063	0.0000000000	0.0000000000	0.0000000000
2.4771503041	0.3316088450	0.6806766496	0.0000000000	1.6580618123	0.0000000000	0.0000000000	0.0000000000
2.4813205908	0.3316106509	0.6806775050	0.0000000000	1.6580622876	0.0000000000	0.0000000000	0.0000000000
2.4854908775	0.3316117508	0.6806780260	0.0000000000	1.6580625770	0.0000000000	0.0000000000	0.0000000000
2.4896611642	0.3316123180	0.6806782947	0.0000000000	1.6580627263	0.0000000000	0.0000000000	0.0000000000
2.4938314509	0.3316125278	0.6806783940	0.0000000000	1.6580627815	0.0000000000	0.0000000000	0.0000000000
2.4980017376	0.3316125579	0.6806784083	0.0000000000	1.6580627894	0.0000000000	0.0000000000	0.0000000000
2.5021720243	0.3316125579	0.6806784083	0.0000000000	1.6580627894	0.0000000000	0.0000000000	0.0000000000
2.5063423110	0.3316125579	0.6806784083	0.0000000000	1.6580627894	0.0000000000	0.0000000000	0.0000000000
2.5105125977	0.3316125579	0.6806784083	0.0000000000	1.6580627894	0.0000000000	0.0000000000	0.0000000000
2.5146828844	0.3316125579	0.6806784083	0.0000000000	1.6580627894	0.0000000000	0.0000000000	0.0000000000
2.5188531712	0.3316125579	0.6806784083	0.0000000000	1.6580627894	0.0000000000	0.0000000000	0.0000000000
2.5230234579	0.3316125579	0.6806784083	0.0000000000	1.6580627894	0.0000000000	0.0000000000	0.0000000000
2.5271937446	0.3316125579	0.6806784083	0.0000000000	1.6580627894	0.0000000000	0.0000000000	0.0000000000
2.5313640313	0.3316125579	0.6806784083	0.0000000000	1.6580627894	0.0000000000	0.0000000000	0.0000000000
2.5355343180	0.3316125579	0.6806784083	0.0000000000	1.6580627894	0.0000000000	0.0000000000	0.0000000000
2.5397046047	0.3316125579	0.6806784083	0.0000000000	1.6580627894	0.0000000000	0.0000000000	0.0000000000
2.5438748914	0.3316125579	0.6806784083	0.0000000000	1.6580627894	0.0000000000	0.0000000000	0.0000000000
2.5480451781	0.3316125579	0.6806784083	0.0000000000	1.6580627894	0.0000000000	0.0000000000	0.0000000000
2.5522154648	0.3316125579	0.6806784083	0.0000000000	1.6580627894	0.0000000000	0.0000000000	0.0000000000
2.5563857515	0.3316125579	0.6806784083	0.0000000000	1.6580627894	0.0000000000	0.0000000000	0.0000000000
2.5605560382	0.3316125579	0.6806784083	0.0000000000	1.6580627894	0.0000000000	0.0000000000	0.0000000000
2.5647263249	0.3316125579	0.6806784083	0.0000000000	1.6580627894	0.0000000000	0.0000000000	0.0000000000
2.5688966116	0.3316125579	0.6806784083	0.0000000000	1.6580627894	0.0000000000	0.0000000000	0.0000000000
2.5730668983	0.3316125579	0.6806784083	0.0000000000	1.6580627894	0.0000000000	0.0000000000	0.0000000000
2.5772371851	0.3316125579	0.6806784083	0.0000000000	1.6580627894	0.0000000000	0.0000000000	0.0000000000
2.5814074718	0.3316125579	0.6806784083	0.0000000000	1.6580627894	0.0000000000	0.0000000000	0.0000000000
2.5855777585	0.3316125579	0.6806784083	0.0000000000	1.6580627894	0.0000000000	0.0000000000	0.0000000000
2.5897480452	0.3316125579	0.6806784083	0.0000000000	1.6580627894	0.0000000000	0.0000000000	0.0000000000
2.5939183319	0.3316125579	0.6806784083	0.0000000000	1.6580627894	0.0000000000	0.0000000000	0.0000000000
2.5980886186	0.3316125579	0.6806784083	0.0000000000	1.6580627894	0.0000000000	0.0000000000	0.0000000000
2.6022589053	0.3316125579	0.6806784083	0.0000000000	1.6580627894	0.0000000000	0.0000000000	0.0000000000
2.6064291920	0.3316125579	0.6806784083	0.0000000000	1.6580627894	0.0000000000	0.0000000000	0.0000000000
2.6105994787	0.3316125579	0.6806784083	0.0000000000	1.6580627894	0.0000000000	0.0000000000	0.0000000000
2.6147697654	0.3316125579	0.6806784083	0.0000000000	1.6580627894	0.0000000000	0.0000000000	0.0000000000
2.6189400521	0.3316125579	0.6806784083	0.0000000000	1.6580627894	0.0000000000	0.0000000000	0.0000000000
2.6231103388	0.3316125579	0.6806784083	0.0000000000	1.6580627894	0.0000000000	0.0000000000	0.0000000000
2.6272806255	0.3316125579	0.6806784083	0.0000000000	1.6580627894	0.0000000000	0.0000000000	0.0000000000
2.6314509123	0.3316125579	0.6806784083	0.0000000000	1.6580627894	0.0000000000	0.0000000000	0.0000000000
2.6356211990	0.3316125579	0.6806784083	0.0000000000	1.6580627894	0.0000000000	0.0000000000	0.0000000000
2.6397914857	0.3316125579	0.6806784083	0.0000000000	1.6580627894	0.0000000000	0.0000000000	0.0000000000
2.6439617724	0.3316125579	0.6806784083	0.0000000000	1.6580627894	0.0000000000	0.0000000000	0.0000000000
2.6481320591	0.3316125579	0.6806784083	0.0000000000	1.6580627894	0.0000000000	0.0000000000	0.0000000000
2.6523023458	0.3316125579	0.6806784083	0.0000000000	1.6580627894	0.0000000000	0.0000000000	0.0000000000
2.6564726325	0.3316125579	0.6806784083	0.0000000000	1.6580627894	0.0000000000	0.0000000000	0.0000000000
2.6606429192	0.3316125579	0.6806784083	0.0000000000	1.6580627894	0.0000000000	0.0000000000	0.0000000000
2.6648132059	0.3316125579	0.6806784083	0.0000000000	1.6580627894	0.0000000000	0.0000000000	0.0000000000
2.6689834926	0.3316125579	0.6806784083	0.0000000000	1.6580627894	0.0000000000	0.0000000000	0.0000000000
2.6731537793	0.3316125579	0.6806784083	0.0000000000	1.6580627894	0.0000000000	0.0000000000	0.0000000000
2.6773240660	0.3316125579	0.6806784083	0.0000000000	1.6580627894	0.0000000000	0.0000000000	0.0000000000
2.6814943527	0.3316125579	0.6806784083	0.0000000000	1.6580627894	0.0000000000	0.0000000000	0.0000000000
2.6856646394	0.3316125579	0.6806784083	0.0000000000	1.6580627894	0.0000000000	0.0000000000	0.0000000000
2.6898349262	0.3316125579	0.6806784083	0.0000000000	1.6580627894	0.0000000000	0.0000000000	0.0000000000
2.6940052129	0.3316125579	0.6806784083	0.0000000000	1.6580627894	0.0000000000	0.0000000000	0.0000000000
2.6981754996	0.3316125579	0.6806784083	0.0000000000	1.6580627894	0.0000000000	0.0000000000	0.0000000000
2.7023457863	0.3316125579	0.6806784083	0.0000000000	1.6580627894	0.0000000000	0.0000000000	0.0000000000
2.7065160730	0.3316125579	0.6806784083	0.0000000000	1.6580627894	0.0000000000	0.0000000000	0.0000000000
2.7106863597	0.3316125579	0.6806784083	0.0000000000	1.6580627894	0.0000000000	0.0000000000	0.0000000000
2.7148566464	0.3316125579	0.6806784083	0.0000000000	1.6580627894	0.0000000000	0.0000000000	0.0000000000
2.7190269331	0.3316125579	0.6806784083	0.0000000000	1.6580627894	0.0000000000	0.0000000000	0.0000000000
2.7231972198	0.3316125579	0.6806784083	0.0000000000	1.6580627894	0.0000000000	0.0000000000	0.0000000000
2.7273675065	0.3316125579	0.6806784083	0.0000000000	1.6580627894	0.0000000000	0.0000000000	0.0000000000
2.7315377932	0.3316125579	0.6806784083	0.0000000000	1.6580627894	0.0000000000	0.0000000000	0.0000000000
2.7357080799	0.3316125579	0.6806784083	0.0000000000	1.6580627894	0.0000000000	0.0000000000	0.0000000000
2.7398783666	0.3316125579	0.6806784083	0.0000000000	1.6580627894	0.0000000000	0.0000000000	0.0000000000
2.7440486533	0.3316125579	0.6806784083	0.0000000000	1.6580627894	0.0000000000	0.0000000000	0.0000000000
2.7482189401	0.3316125579	0.6806784083	0.0000000000	1.6580627894	0.0000000000	0.0000000000	0.0000000000
2.7523892268	0.3316125579	0.6806784083	0.0000000000	1.6580627894	0.0000000000	0.0000000000	0.0000000000
2.7565595135	0.3316125579	0.6806784083	0.0000000000	1.6580627894	0.0000000000	0.0000000000	0.0000000000
2.7607298002	0.3316125579	0.6806784083	0.0000000000	1.6580627894	0.0000000000	0.0000000000	0.0000000000
2.7649000869	0.3316125579	0.6806784083	0.0000000000	1.6580627894	0.0000000000	0.0000000000	0.0000000000
2.7690703736	0.3316125579	0.6806784083	0.0000000000	1.6580627894	0.0000000000	0.0000000000	0.0000000000
2.7732406603	0.3316125579	0.6806784083	0.0000000000	1.6580627894	0.0000000000	0.0000000000	0.0000000000
2.7774109470	0.3316125579	0.6806784083	0.0000000000	1.6580627894	0.0000000000	0.0000000000	0.0000000000
2.7815812337	0.3316125579	0.6806784083	0.0000000000	1.6580627894	0.0000000000	0.0000000000	0.0000000000
2.7857515204	0.3316125579	0.6806784083	0.0000000000	1.6580627894	0.0000000000	0.0000000000	0.0000000000
2.7899218071	0.3316125579	0.6806784083	0.0000000000	1.6580627894	0.0000000000	0.0000000000	0.0000000000
2.7940920938	0.3316125579	0.6806784083	0.0000000000	1.6580627894	0.0000000000	0.0000000000	0.0000000000
2.7982623805	0.3316125579	0.6806784083	0.0000000000	1.6580627894	0.0000000000	0.0000000000	0.0000000000
2.8024326672	0.3316125579	0.6806784083	0.0000000000	1.6580627894	0.0000000000	0.0000000000	0.0000000000
2.8066029540	0.3316125579	0.6806784083	0.0000000000	1.6580627894	0.0000000000	0.0000000000	0.0000000000
2.8107732407	0.3316125579	0.6806784083	0.0000000000	1.6580627894	0.0000000000	0.0000000000	0.0000000000
2.8149435274	0.3316125579	0.6806784083	0.0000000000	1.6580627894	0.0000000000	0.0000000000	0.0000000000
2.8191138141	0.3316125579	0.6806784083	0.0000000000	1.6580627894	0.0000000000	0.0000000000	0.0000000000
2.8232841008	0.3316125579	0.6806784083	0.0000000000	1.6580627894	0.0000000000	0.0000000000	0.0000000000
2.8274543875	0.3316125579	0.6806784083	0.0000000000	1.6580627894	0.0000000000	0.0000000000	0.0000000000
2.8316246742	0.3316125579	0.6806784083	0.0000000000	1.6580627894	0.0000000000	0.0000000000	0.0000000000
2.8357949609	0.3316125579	0.6806784083	0.0000000000	1.6580627894	0.0000000000	0.0000000000	0.0000000000
2.8399652476	0.3316125579	0.6806784083	0.0000000000	1.6580627894	0.0000000000	0.0000000000	0.0000000000
2.8441355343	0.3316125579	0.6806784083	0.0000000000	1.6580627894	0.0000000000	0.0000000000	0.0000000000
2.8483058210	0.3316125579	0.6806784083	0.0000000000	1.6580627894	0.0000000000	0.0000000000	0.0000000000
2.8524761077	0.3316125579	0.6806784083	0.0000000000	1.6580627894	0.0000000000	0.0000000000	0.0000000000
2.8566463944	0.3316125579	0.6806784083	0.0000000000	1.6580627894	0.0000000000	0.0000000000	0.0000000000
2.8608166811	0.3316125579	0.6806784083	0.0000000000	1.6580627894	0.0000000000	0.0000000000	0.0000000000
2.8649869679	0.3316125579	0.6806784083	0.0000000000	1.6580627894	0.0000000000	0.0000000000	0.0000000000
2.8691572546	0.3316125579	0.6806784083	0.0000000000	1.6580627894	0.0000000000	0.0000000000	0.0000000000
2.8733275413	0.3316125579	0.6806784083	0.0000000000	1.6580627894	0.0000000000	0.0000000000	0.0000000000
2.8774978280	0.3316125579	0.6806784083	0.0000000000	1.6580627894	0.0000000000	0.0000000000	0.0000000000
